<?xml version="1.0" encoding="iso-8859-1"?>
<!-- Generator: Adobe Illustrator 19.0.0, SVG Export Plug-In . SVG Version: 6.00 Build 0)  -->
<svg version="1.1" id="Layer_1" xmlns="http://www.w3.org/2000/svg" xmlns:xlink="http://www.w3.org/1999/xlink" x="0px" y="0px"
	 viewBox="0 0 512 512" style="enable-background:new 0 0 512 512;" xml:space="preserve">
<rect x="135.191" y="89.169" style="fill:#DBDBDB;" width="161.079" height="207.101"/>
<g>
	<rect x="261.753" y="89.169" style="fill:#CCCCCE;" width="46.022" height="207.101"/>
	<rect x="169.708" y="43.146" style="fill:#CCCCCE;" width="92.045" height="46.022"/>
</g>
<rect x="296.27" y="43.146" style="fill:#ACAAB0;" width="161.079" height="460.225"/>
<rect x="54.652" y="169.708" style="fill:#F8F8F9;" width="161.079" height="333.663"/>
<rect x="215.73" y="273.258" style="fill:#EDEDED;" width="161.079" height="230.112"/>
<rect x="261.753" y="273.258" style="fill:#DBDBDB;" width="115.056" height="230.112"/>
<rect x="112.18" y="457.348" style="fill:#D1E5F5;" width="46.022" height="46.022"/>
<path style="fill:#88888F;" d="M135.191,512c-4.766,0-8.629-3.862-8.629-8.629V480.36c0-4.767,3.864-8.629,8.629-8.629
	c4.767,0,8.629,3.862,8.629,8.629v23.011C143.82,508.138,139.958,512,135.191,512z"/>
<g>
	<path style="fill:#2E2D31;" d="M480.36,494.742h-14.382V43.146c0-4.767-3.864-8.629-8.629-8.629H296.27
		c-4.766,0-8.629,3.862-8.629,8.629v37.393h-17.258V43.146c0-4.767-3.864-8.629-8.629-8.629H224.36V8.629
		c0-4.767-3.864-8.629-8.629-8.629s-8.629,3.862-8.629,8.629v25.888h-37.393c-4.766,0-8.629,3.862-8.629,8.629v37.393h-25.888
		c-4.766,0-8.629,3.862-8.629,8.629v71.91h-71.91c-4.766,0-8.629,3.862-8.629,8.629v325.034H31.64c-4.766,0-8.629,3.862-8.629,8.629
		S26.875,512,31.64,512h80.539h46.022h57.528h161.079H480.36c4.766,0,8.629-3.862,8.629-8.629S485.125,494.742,480.36,494.742z
		 M304.899,51.775h143.82v442.966h-63.281V273.258v-11.506c0-4.767-3.864-8.629-8.629-8.629s-8.629,3.862-8.629,8.629v2.876h-17.258
		v-2.876c0-4.767-3.864-8.629-8.629-8.629s-8.629,3.862-8.629,8.629v2.876h-28.764V89.169V51.775z M178.337,51.775h74.787v28.764
		h-74.787V51.775z M143.82,97.798h25.888h92.045h25.888v166.831H224.36v-28.764h25.888c4.766,0,8.629-3.862,8.629-8.629
		s-3.864-8.629-8.629-8.629H224.36v-28.764h25.888c4.766,0,8.629-3.862,8.629-8.629s-3.864-8.629-8.629-8.629H224.36v-2.876
		c0-4.767-3.864-8.629-8.629-8.629h-71.91V97.798z M63.281,178.337h143.82v316.404h-40.27v-37.393c0-4.767-3.864-8.629-8.629-8.629
		H112.18c-4.766,0-8.629,3.862-8.629,8.629v37.393h-40.27V178.337z M120.809,494.742v-28.764h28.764v28.764H120.809z
		 M224.36,494.742V281.888h143.82v212.854H224.36z"/>
	<path style="fill:#2E2D31;" d="M261.753,299.148c-4.766,0-8.629,3.862-8.629,8.629v161.079c0,4.766,3.864,8.629,8.629,8.629
		s8.629-3.864,8.629-8.629V307.778C270.382,303.011,266.518,299.148,261.753,299.148z"/>
	<path style="fill:#2E2D31;" d="M296.27,299.148c-4.766,0-8.629,3.862-8.629,8.629v161.079c0,4.766,3.864,8.629,8.629,8.629
		s8.629-3.864,8.629-8.629V307.778C304.899,303.011,301.035,299.148,296.27,299.148z"/>
	<path style="fill:#2E2D31;" d="M330.787,299.148c-4.766,0-8.629,3.862-8.629,8.629v161.079c0,4.766,3.864,8.629,8.629,8.629
		s8.629-3.864,8.629-8.629V307.778C339.416,303.011,335.552,299.148,330.787,299.148z"/>
	<path style="fill:#2E2D31;" d="M342.292,109.303c4.766,0,8.629-3.862,8.629-8.629V89.169c0-4.767-3.864-8.629-8.629-8.629
		s-8.629,3.862-8.629,8.629v11.506C333.663,105.441,337.527,109.303,342.292,109.303z"/>
	<path style="fill:#2E2D31;" d="M376.809,109.303c4.766,0,8.629-3.862,8.629-8.629V89.169c0-4.767-3.864-8.629-8.629-8.629
		s-8.629,3.862-8.629,8.629v11.506C368.18,105.441,372.043,109.303,376.809,109.303z"/>
	<path style="fill:#2E2D31;" d="M411.326,109.303c4.766,0,8.629-3.862,8.629-8.629V89.169c0-4.767-3.864-8.629-8.629-8.629
		s-8.629,3.862-8.629,8.629v11.506C402.697,105.441,406.56,109.303,411.326,109.303z"/>
	<path style="fill:#2E2D31;" d="M342.292,166.831c4.766,0,8.629-3.862,8.629-8.629v-11.506c0-4.767-3.864-8.629-8.629-8.629
		s-8.629,3.862-8.629,8.629v11.506C333.663,162.969,337.527,166.831,342.292,166.831z"/>
	<path style="fill:#2E2D31;" d="M376.809,166.831c4.766,0,8.629-3.862,8.629-8.629v-11.506c0-4.767-3.864-8.629-8.629-8.629
		s-8.629,3.862-8.629,8.629v11.506C368.18,162.969,372.043,166.831,376.809,166.831z"/>
	<path style="fill:#2E2D31;" d="M411.326,166.831c4.766,0,8.629-3.862,8.629-8.629v-11.506c0-4.767-3.864-8.629-8.629-8.629
		s-8.629,3.862-8.629,8.629v11.506C402.697,162.969,406.56,166.831,411.326,166.831z"/>
	<path style="fill:#2E2D31;" d="M342.292,224.36c4.766,0,8.629-3.862,8.629-8.629v-11.506c0-4.767-3.864-8.629-8.629-8.629
		s-8.629,3.862-8.629,8.629v11.506C333.663,220.497,337.527,224.36,342.292,224.36z"/>
	<path style="fill:#2E2D31;" d="M376.809,224.36c4.766,0,8.629-3.862,8.629-8.629v-11.506c0-4.767-3.864-8.629-8.629-8.629
		s-8.629,3.862-8.629,8.629v11.506C368.18,220.497,372.043,224.36,376.809,224.36z"/>
	<path style="fill:#2E2D31;" d="M411.326,224.36c4.766,0,8.629-3.862,8.629-8.629v-11.506c0-4.767-3.864-8.629-8.629-8.629
		s-8.629,3.862-8.629,8.629v11.506C402.697,220.497,406.56,224.36,411.326,224.36z"/>
	<path style="fill:#2E2D31;" d="M100.674,247.371c4.766,0,8.629-3.862,8.629-8.629v-11.506c0-4.767-3.864-8.629-8.629-8.629
		s-8.629,3.862-8.629,8.629v11.506C92.045,243.508,95.909,247.371,100.674,247.371z"/>
	<path style="fill:#2E2D31;" d="M135.191,247.371c4.766,0,8.629-3.862,8.629-8.629v-11.506c0-4.767-3.864-8.629-8.629-8.629
		s-8.629,3.862-8.629,8.629v11.506C126.562,243.508,130.425,247.371,135.191,247.371z"/>
	<path style="fill:#2E2D31;" d="M169.708,247.371c4.766,0,8.629-3.862,8.629-8.629v-11.506c0-4.767-3.864-8.629-8.629-8.629
		s-8.629,3.862-8.629,8.629v11.506C161.079,243.508,164.942,247.371,169.708,247.371z"/>
	<path style="fill:#2E2D31;" d="M100.674,304.899c4.766,0,8.629-3.862,8.629-8.629v-11.506c0-4.767-3.864-8.629-8.629-8.629
		s-8.629,3.862-8.629,8.629v11.506C92.045,301.036,95.909,304.899,100.674,304.899z"/>
	<path style="fill:#2E2D31;" d="M135.191,304.899c4.766,0,8.629-3.862,8.629-8.629v-11.506c0-4.767-3.864-8.629-8.629-8.629
		s-8.629,3.862-8.629,8.629v11.506C126.562,301.036,130.425,304.899,135.191,304.899z"/>
	<path style="fill:#2E2D31;" d="M169.708,304.899c4.766,0,8.629-3.862,8.629-8.629v-11.506c0-4.767-3.864-8.629-8.629-8.629
		s-8.629,3.862-8.629,8.629v11.506C161.079,301.036,164.942,304.899,169.708,304.899z"/>
	<path style="fill:#2E2D31;" d="M100.674,362.427c4.766,0,8.629-3.862,8.629-8.629v-11.506c0-4.767-3.864-8.629-8.629-8.629
		s-8.629,3.862-8.629,8.629v11.506C92.045,358.565,95.909,362.427,100.674,362.427z"/>
	<path style="fill:#2E2D31;" d="M135.191,362.427c4.766,0,8.629-3.862,8.629-8.629v-11.506c0-4.767-3.864-8.629-8.629-8.629
		s-8.629,3.862-8.629,8.629v11.506C126.562,358.565,130.425,362.427,135.191,362.427z"/>
	<path style="fill:#2E2D31;" d="M169.708,362.427c4.766,0,8.629-3.862,8.629-8.629v-11.506c0-4.767-3.864-8.629-8.629-8.629
		s-8.629,3.862-8.629,8.629v11.506C161.079,358.565,164.942,362.427,169.708,362.427z"/>
	<path style="fill:#2E2D31;" d="M109.303,411.326V399.82c0-4.767-3.864-8.629-8.629-8.629s-8.629,3.862-8.629,8.629v11.506
		c0,4.767,3.864,8.629,8.629,8.629S109.303,416.093,109.303,411.326z"/>
	<path style="fill:#2E2D31;" d="M135.191,419.955c4.766,0,8.629-3.862,8.629-8.629V399.82c0-4.767-3.864-8.629-8.629-8.629
		s-8.629,3.862-8.629,8.629v11.506C126.562,416.093,130.425,419.955,135.191,419.955z"/>
	<path style="fill:#2E2D31;" d="M169.708,419.955c4.766,0,8.629-3.862,8.629-8.629V399.82c0-4.767-3.864-8.629-8.629-8.629
		s-8.629,3.862-8.629,8.629v11.506C161.079,416.093,164.942,419.955,169.708,419.955z"/>
	<path style="fill:#2E2D31;" d="M411.326,281.888c4.766,0,8.629-3.862,8.629-8.629v-11.506c0-4.767-3.864-8.629-8.629-8.629
		s-8.629,3.862-8.629,8.629v11.506C402.697,278.025,406.56,281.888,411.326,281.888z"/>
	<path style="fill:#2E2D31;" d="M411.326,339.416c4.766,0,8.629-3.862,8.629-8.629v-11.506c0-4.767-3.864-8.629-8.629-8.629
		s-8.629,3.862-8.629,8.629v11.506C402.697,335.553,406.56,339.416,411.326,339.416z"/>
	<path style="fill:#2E2D31;" d="M411.326,396.944c4.766,0,8.629-3.862,8.629-8.629v-11.506c0-4.767-3.864-8.629-8.629-8.629
		s-8.629,3.862-8.629,8.629v11.506C402.697,393.081,406.56,396.944,411.326,396.944z"/>
	<path style="fill:#2E2D31;" d="M411.326,454.472c4.766,0,8.629-3.862,8.629-8.629v-11.506c0-4.767-3.864-8.629-8.629-8.629
		s-8.629,3.862-8.629,8.629v11.506C402.697,450.609,406.56,454.472,411.326,454.472z"/>
	<path style="fill:#2E2D31;" d="M258.876,135.191c0-4.767-3.864-8.629-8.629-8.629h-69.034c-4.766,0-8.629,3.862-8.629,8.629
		c0,4.767,3.864,8.629,8.629,8.629h69.034C255.013,143.82,258.876,139.958,258.876,135.191z"/>
</g>
<g>
</g>
<g>
</g>
<g>
</g>
<g>
</g>
<g>
</g>
<g>
</g>
<g>
</g>
<g>
</g>
<g>
</g>
<g>
</g>
<g>
</g>
<g>
</g>
<g>
</g>
<g>
</g>
<g>
</g>
</svg>
